<svg xmlns="http://www.w3.org/2000/svg" fill="currentColor" viewBox="0 0 24 24">
  <path d="M5 21c-.55 0-1.02-.196-1.413-.587A1.926 1.926 0 0 1 3 19V5c0-.55.196-1.02.587-1.413A1.926 1.926 0 0 1 5 3h14c.55 0 1.02.196 1.413.587.39.393.587.863.587 1.413v6.7a8.184 8.184 0 0 0-.975-.387A6.104 6.104 0 0 0 19 11.075V5H5v14h6.05c.05.367.13.717.237 1.05.109.333.238.65.388.95H5Zm0-2V5v6.075V11v8Zm2-2h4.075c.05-.35.13-.692.238-1.025.108-.333.229-.658.362-.975H7v2Zm0-4h6.1c.533-.5 1.13-.917 1.787-1.25A7.043 7.043 0 0 1 17 11.075V11H7v2Zm0-4h10V7H7v2Zm11 14c-1.383 0-2.563-.488-3.537-1.462C13.488 20.562 13 19.383 13 18s.488-2.563 1.463-3.537C15.438 13.488 16.617 13 18 13s2.563.488 3.538 1.463C22.512 15.438 23 16.617 23 18s-.488 2.563-1.462 3.538C20.562 22.512 19.383 23 18 23Zm-.5-2h1v-2.5H21v-1h-2.5V15h-1v2.5H15v1h2.5V21Z"/>
</svg>
