<svg viewBox="0 0 24 24" fill="none" xmlns="http://www.w3.org/2000/svg">
<path d="M8.56061 2.89991C9.62592 2.2988 10.8302 1.98733 12.0533 1.99654C13.2765 2.00575 14.4759 2.33532 15.532 2.95241C16.5882 3.5695 17.4642 4.45257 18.0727 5.51363C18.6813 6.5747 19.0012 7.77671 19.0006 8.99991V12.9999M17.0006 16.9999H2.00061C2.79626 16.9999 3.55932 16.6838 4.12193 16.1212C4.68454 15.5586 5.00061 14.7956 5.00061 13.9999V8.99991C4.9992 7.87963 5.26669 6.77537 5.78061 5.77991M13.7306 20.9999C13.5548 21.303 13.3025 21.5546 12.9988 21.7294C12.6952 21.9043 12.351 21.9964 12.0006 21.9964C11.6502 21.9964 11.306 21.9043 11.0024 21.7294C10.6988 21.5546 10.4464 21.303 10.2706 20.9999" stroke="CurrentColor" stroke-width="2" stroke-linecap="round" stroke-linejoin="round"/>
<path d="M1.00061 1L23.0006 23" stroke="CurrentColor" stroke-width="2" stroke-linecap="round" stroke-linejoin="round"/>

</svg>
