<svg viewBox="0 0 24 25" fill="none" xmlns="http://www.w3.org/2000/svg">
<path d="M5 2.88232C3.8954 2.88232 3 3.78232 3 4.88232V12.8823V16.8823V22.8823C3 23.9823 3.8954 24.8823 5 24.8823H19C20.105 24.8823 21 23.9823 21 22.8823V16.8823V12.8823V8.88232L15 2.88232H5Z" fill="#95A5A6"/>
<path d="M5 1.88232C3.8954 1.88232 3 2.78232 3 3.88232V11.8823V15.8823V21.8823C3 22.9823 3.8954 23.8823 5 23.8823H19C20.105 23.8823 21 22.9823 21 21.8823V15.8823V11.8823V7.88232L15 1.88232H5Z" fill="#ffffff"/>
<path d="M16.996 7.58228V16.3823C16.996 16.5823 16.908 16.8823 16.73 17.0823C16.553 17.2823 16.329 17.3823 16.059 17.4823C15.788 17.5823 15.517 17.6823 15.246 17.7823C14.98 17.7823 14.73 17.8823 14.496 17.8823C14.262 17.8823 14.009 17.7823 13.738 17.7823C13.473 17.6823 13.204 17.5823 12.934 17.4823C12.663 17.3823 12.439 17.2823 12.262 17.0823C12.085 16.8823 11.996 16.5823 11.996 16.3823C11.996 16.0823 12.085 15.8823 12.262 15.6823C12.439 15.4823 12.663 15.2823 12.934 15.1823C13.204 15.0823 13.473 14.9823 13.738 14.8823H14.496C15.043 14.8823 15.543 14.9823 15.996 15.1823V10.9823L9.99609 12.7823V18.3823C9.99609 18.5823 9.90749 18.8823 9.73049 19.0823C9.55339 19.2823 9.32939 19.3823 9.05859 19.4823C8.78779 19.5823 8.51689 19.6823 8.24609 19.7823C7.98049 19.7823 7.73049 19.8823 7.49609 19.8823C7.26169 19.8823 7.00909 19.7823 6.73829 19.7823C6.47269 19.6823 6.20439 19.5823 5.93359 19.4823C5.66279 19.3823 5.43879 19.2823 5.26169 19.0823C5.08459 18.8823 4.99609 18.5823 4.99609 18.3823C4.99609 18.0823 5.08459 17.8823 5.26169 17.6823C5.43879 17.4823 5.66279 17.2823 5.93359 17.1823C6.20439 17.0823 6.47269 16.9823 6.73829 16.8823H7.49609C8.04299 16.8823 8.54299 16.9823 8.99609 17.1823V9.58228C8.99609 9.48228 9.04559 9.28225 9.14449 9.18225C9.24349 8.98225 9.37109 8.88232 9.52729 8.88232L16.027 6.88232H16.246C16.454 6.88232 16.631 6.88228 16.777 7.08228C16.923 7.18228 16.996 7.38228 16.996 7.58228Z" fill="#3498DB"/>
<path d="M21 7.88232L15 1.88232V5.88232C15 6.98232 15.895 7.88232 17 7.88232H21Z" fill="#95A5A6"/>

</svg>
