<svg viewBox="0 0 24 25" fill="none" xmlns="http://www.w3.org/2000/svg">
<path d="M19.5 24.5073H4.5C3.46613 24.5073 2.625 23.6662 2.625 22.6323V3.13232C2.625 2.09845 3.46613 1.25732 4.5 1.25732H12.1288C12.6296 1.25732 13.1006 1.45251 13.4544 1.80651L20.8258 9.17789C21.18 9.53207 21.375 10.0027 21.375 10.5035V22.6323C21.375 23.6662 20.5339 24.5073 19.5 24.5073ZM4.5 2.00732C3.87956 2.00732 3.375 2.51189 3.375 3.13232V22.6323C3.375 23.2528 3.87956 23.7573 4.5 23.7573H19.5C20.1204 23.7573 20.625 23.2528 20.625 22.6323V10.5035C20.625 10.2074 20.5048 9.91757 20.2956 9.70814L12.9242 2.33676C12.7118 2.12432 12.4292 2.00732 12.1288 2.00732H4.5Z" fill="#FD4233"/>
<path d="M17.8519 15.9423C17.8388 15.8467 17.7619 15.7267 17.6794 15.6461C17.4432 15.4136 16.9238 15.2917 16.1325 15.2804C15.5963 15.2748 14.9513 15.3217 14.2725 15.4173C13.9688 15.2429 13.6557 15.0517 13.41 14.8211C12.7482 14.2042 12.1969 13.3473 11.8519 12.4042C11.8744 12.3161 11.8932 12.2392 11.9119 12.1604C11.9119 12.1604 12.2832 10.0454 12.1857 9.3292C12.1725 9.2317 12.1632 9.20357 12.1369 9.1267L12.105 9.0442C12.0038 8.80982 11.805 8.56232 11.4938 8.57545L11.31 8.56982H11.3063C10.9575 8.56982 10.6763 8.74795 10.6013 9.01232C10.3763 9.84482 10.6088 11.0917 11.0307 12.7042L10.9219 12.9667C10.62 13.7054 10.2413 14.4479 9.90753 15.1023L9.8644 15.1867C9.5119 15.8748 9.19315 16.4598 8.90253 16.9548L8.6044 17.1123C8.5819 17.1236 8.07003 17.3954 7.95003 17.4667C6.9319 18.0761 6.2569 18.7661 6.1444 19.3136C6.10878 19.4898 6.13503 19.7129 6.3169 19.8161L6.60565 19.9623C6.73128 20.0242 6.8644 20.0561 6.9994 20.0561C7.72503 20.0561 8.5669 19.1523 9.72753 17.1273C11.0663 16.6923 12.5925 16.3286 13.9294 16.1298C14.9475 16.7017 16.2 17.1011 16.9913 17.1011C17.1319 17.1011 17.2538 17.0879 17.3513 17.0617C17.5032 17.0204 17.6307 16.9342 17.7094 16.8179C17.8632 16.5873 17.8932 16.2686 17.8519 15.9423ZM6.8419 19.5067C6.97315 19.1448 7.49815 18.4286 8.27253 17.7948C8.32128 17.7554 8.44128 17.6429 8.55003 17.5379C7.74003 18.8298 7.19815 19.3436 6.8419 19.5067ZM11.4282 8.94482C11.6607 8.94482 11.7938 9.5317 11.805 10.0829C11.8163 10.6342 11.6869 11.0204 11.5275 11.3073C11.3944 10.8836 11.3307 10.2161 11.3307 9.7792C11.3307 9.7792 11.3213 8.94482 11.4282 8.94482ZM10.0594 16.4711C10.2225 16.1804 10.3913 15.8729 10.5638 15.5486C10.9857 14.7517 11.2519 14.1292 11.4488 13.6173C11.8425 14.3336 12.3338 14.9429 12.9094 15.4304C12.9825 15.4904 13.0594 15.5523 13.1382 15.6142C11.9663 15.8448 10.9519 16.1279 10.0594 16.4711ZM17.4525 16.4054C17.3813 16.4486 17.1769 16.4748 17.0457 16.4748C16.6219 16.4748 16.095 16.2817 15.3582 15.9648C15.6413 15.9442 15.9019 15.9329 16.1344 15.9329C16.56 15.9329 16.6857 15.9311 17.1038 16.0379C17.52 16.1448 17.5257 16.3604 17.4525 16.4054Z" fill="#FF402F"/>

</svg>
