<svg viewBox="0 0 24 25" fill="none" xmlns="http://www.w3.org/2000/svg">
<path d="M19.5 24.5073H4.5C3.46613 24.5073 2.625 23.6662 2.625 22.6323V3.13232C2.625 2.09845 3.46613 1.25732 4.5 1.25732H12.1288C12.6296 1.25732 13.1006 1.45251 13.4544 1.80651L20.8258 9.17789C21.18 9.53207 21.375 10.0027 21.375 10.5035V22.6323C21.375 23.6662 20.5339 24.5073 19.5 24.5073ZM4.5 2.00732C3.87956 2.00732 3.375 2.51189 3.375 3.13232V22.6323C3.375 23.2528 3.87956 23.7573 4.5 23.7573H19.5C20.1204 23.7573 20.625 23.2528 20.625 22.6323V10.5035C20.625 10.2074 20.5048 9.91757 20.2956 9.70814L12.9242 2.33676C12.7118 2.12432 12.4292 2.00732 12.1288 2.00732H4.5Z" fill="#00B8DF"/>
<path d="M10.6875 21.8823H8.8125V23.0073H10.6875V21.8823Z" fill="#00B8DF"/>
<path d="M8.8125 23.0073H6.9375V24.1323H8.8125V23.0073Z" fill="#00B8DF"/>
<path d="M10.6875 19.6323H8.8125V20.7573H10.6875V19.6323Z" fill="#00B8DF"/>
<path d="M8.8125 20.7573H6.9375V21.8823H8.8125V20.7573Z" fill="#00B8DF"/>
<path d="M10.6875 17.3823H8.8125V18.5073H10.6875V17.3823Z" fill="#00B8DF"/>
<path d="M8.8125 18.5073H6.9375V19.6323H8.8125V18.5073Z" fill="#00B8DF"/>
<path d="M10.6875 15.1323H8.8125V16.2573H10.6875V15.1323Z" fill="#00B8DF"/>
<path d="M8.8125 16.2573H6.9375V17.3823H8.8125V16.2573Z" fill="#00B8DF"/>
<path d="M10.6875 12.8823H8.8125V14.0073H10.6875V12.8823Z" fill="#00B8DF"/>
<path d="M8.8125 14.0073H6.9375V15.1323H8.8125V14.0073Z" fill="#00B8DF"/>
<path d="M10.5 6.31982H7.5C7.29375 6.31982 7.125 6.48857 7.125 6.69482V11.3823C7.125 11.5886 7.29375 11.7573 7.5 11.7573H10.5C10.7063 11.7573 10.875 11.5886 10.875 11.3823V6.69482C10.875 6.48857 10.7063 6.31982 10.5 6.31982ZM9.9375 9.31982H8.0625V7.25732H9.9375V9.31982Z" fill="#00B8DF"/>
</g>

</svg>
