<svg viewBox="0 0 24 25" fill="none" xmlns="http://www.w3.org/2000/svg">
<path d="M19.5 24.5073H4.5C3.46875 24.5073 2.625 23.6636 2.625 22.6323V3.13232C2.625 2.10107 3.46875 1.25732 4.5 1.25732H12.1312C12.6375 1.25732 13.1063 1.44482 13.4625 1.80107L20.8312 9.16982C21.1875 9.52607 21.375 9.99482 21.375 10.5011V22.6323C21.375 23.6636 20.5312 24.5073 19.5 24.5073ZM4.5 2.00732C3.88125 2.00732 3.375 2.51357 3.375 3.13232V22.6323C3.375 23.2511 3.88125 23.7573 4.5 23.7573H19.5C20.1187 23.7573 20.625 23.2511 20.625 22.6323V10.5011C20.625 10.2011 20.5125 9.91982 20.2875 9.71357L12.9188 2.34482C12.7125 2.11982 12.4312 2.00732 12.1312 2.00732H4.5Z" fill="#1D409D"/>
<path d="M14.7562 18.8824H13.2L12.3375 15.5074C12.3 15.3949 12.2438 15.1324 12.1688 14.7574C12.0938 14.3824 12.0375 14.1199 12.0375 14.0074C12.0187 14.1574 11.9813 14.4199 11.9063 14.7762C11.8313 15.1324 11.775 15.3762 11.7375 15.5262L10.875 18.8824H9.31875L7.6875 12.4512H9.01875L9.84375 15.9574C9.99375 16.6137 10.0875 17.1574 10.1625 17.6449C10.1813 17.4762 10.2188 17.2137 10.275 16.8762C10.3313 16.5387 10.4063 16.2574 10.4438 16.0699L11.3813 12.4699H12.675L13.6125 16.0699C13.65 16.2387 13.7063 16.4824 13.7625 16.8012C13.8188 17.1199 13.875 17.4199 13.9125 17.6449C13.95 17.4199 13.9875 17.1387 14.0625 16.7824C14.1375 16.4262 14.1938 16.1637 14.2313 15.9574L15.0563 12.4512H16.3875L14.7562 18.8824Z" fill="#1D409D"/>

</svg>
