<svg width="24" height="25" viewBox="0 0 24 25" fill="none" xmlns="http://www.w3.org/2000/svg">
<path d="M15 18.8824H13.4437L11.9438 16.4449L10.4438 18.8824H9L11.1375 15.5637L9.13125 12.4512H10.6313L12.0187 14.7574L13.3688 12.4512H14.8312L12.8063 15.6387L15 18.8824Z" fill="#007732"/>
<path d="M19.5 24.5073H4.5C3.46875 24.5073 2.625 23.6636 2.625 22.6323V3.13232C2.625 2.10107 3.46875 1.25732 4.5 1.25732H12.1312C12.6375 1.25732 13.1063 1.44482 13.4625 1.80107L20.8312 9.16982C21.1875 9.52607 21.375 9.99482 21.375 10.5011V22.6323C21.375 23.6636 20.5312 24.5073 19.5 24.5073ZM4.5 2.00732C3.88125 2.00732 3.375 2.51357 3.375 3.13232V22.6323C3.375 23.2511 3.88125 23.7573 4.5 23.7573H19.5C20.1187 23.7573 20.625 23.2511 20.625 22.6323V10.5011C20.625 10.2011 20.5125 9.91982 20.2875 9.71357L12.9188 2.34482C12.7125 2.11982 12.4312 2.00732 12.1312 2.00732H4.5Z" fill="#007732"/>

</svg>
