<svg viewBox="0 0 29 28" fill="currentColor" xmlns="http://www.w3.org/2000/svg">
<path d="M19.1654 16.3334H19.7487C20.7135 16.3334 21.4987 15.5482 21.4987 14.5834V4.08337C21.4987 3.11854 20.7135 2.33337 19.7487 2.33337H4.58203C3.6172 2.33337 2.83203 3.11854 2.83203 4.08337V15.1667V16.3334V21L9.05386 16.3334H15.6654H19.1654V16.3334ZM8.27556 14.0001L5.16406 16.3334V15.1667V4.66675H19.1641V14.0001H15.6641H8.27556V14.0001Z"/>
<path d="M24.4154 9.33337H23.832V11.6667V14.6837V16.3345C23.832 17.6179 22.7902 18.6597 21.5104 18.6667H20.7205H19.1654H13.332H12.1654H9.83203V19.25C9.83203 20.2149 10.6172 21 11.582 21H12.1654H13.332H19.1654H19.9435L26.1654 25.6667V21V19.8334V17.5012V15.1655V11.0834C26.1654 10.1185 25.3802 9.33337 24.4154 9.33337V9.33337Z" />
</svg>
