<svg viewBox="0 0 24 25" fill="currentColor" xmlns="http://www.w3.org/2000/svg">
<path d="M12 21.8823C9.7 21.8823 7.69583 21.1198 5.9875 19.5948C4.27917 18.0698 3.3 16.1657 3.05 13.8823H5.1C5.33333 15.6157 6.10417 17.049 7.4125 18.1823C8.72083 19.3157 10.25 19.8823 12 19.8823C13.95 19.8823 15.6042 19.2032 16.9625 17.8448C18.3208 16.4865 19 14.8323 19 12.8823C19 10.9323 18.3208 9.27816 16.9625 7.91982C15.6042 6.56149 13.95 5.88232 12 5.88232C10.85 5.88232 9.775 6.14899 8.775 6.68232C7.775 7.21566 6.93333 7.94899 6.25 8.88232H9V10.8823H3V4.88232H5V7.23232C5.85 6.16566 6.8875 5.34066 8.1125 4.75732C9.3375 4.17399 10.6333 3.88232 12 3.88232C13.25 3.88232 14.4208 4.11982 15.5125 4.59482C16.6042 5.06982 17.5542 5.71149 18.3625 6.51982C19.1708 7.32816 19.8125 8.27816 20.2875 9.36982C20.7625 10.4615 21 11.6323 21 12.8823C21 14.1323 20.7625 15.3032 20.2875 16.3948C19.8125 17.4865 19.1708 18.4365 18.3625 19.2448C17.5542 20.0532 16.6042 20.6948 15.5125 21.1698C14.4208 21.6448 13.25 21.8823 12 21.8823ZM14.8 17.0823L11 13.2823V7.88232H13V12.4823L16.2 15.6823L14.8 17.0823Z" />
</svg>
