<svg xmlns="http://www.w3.org/2000/svg" fill="currentColor" viewBox="0 0 24 24">
  <path d="M22.5 4.875h-21A1.125 1.125 0 0 0 .375 6v6a1.125 1.125 0 0 0 .994 1.125 1.62 1.62 0 0 1-.068-.803.375.375 0 0 1-.176-.322V6a.375.375 0 0 1 .375-.375h21a.375.375 0 0 1 .375.375v6a.375.375 0 0 1-.375.375H10.369c.13.23.201.487.21.75H22.5A1.125 1.125 0 0 0 23.625 12V6A1.125 1.125 0 0 0 22.5 4.875Z"/>
  <path d="M8.501 12.266a1.043 1.043 0 0 0-1.275-.585A1.039 1.039 0 0 0 6 11.077c-.064-.573.21-2.133-.307-2.486-.59-.585-1.74-.146-1.714.69v3c-.409-1.181-2.381-.581-1.901.66a50.666 50.666 0 0 1 1.912 4.946c-.397.214-.42.75-.394 1.125a.843.843 0 0 0 .844.863h3.81a.844.844 0 0 0 .844-.844c.037-.457-.026-1.035-.518-1.211l.604-1.834.634-2.726c.116-.69-.694-1.219-1.313-.994Zm-.15 6.75a.094.094 0 0 1-.1.109H4.44c-.17 0-.072-.443-.095-.525a.094.094 0 0 1 .117-.094H8.25c.176-.015.075.443.101.525v-.015Zm.113-3.247-.645 1.972H4.736L4.08 15.75l-1.294-3.11c-.045-.124.034-.21.143-.255a.278.278 0 0 1 .352.128l.75 1.777a.375.375 0 0 0 .72-.15V9.266c0-.199.323-.281.458-.139a.203.203 0 0 1 .064.14V12a.375.375 0 0 0 .75 0c0-.195.322-.278.457-.135.12.052.045.619.064.72a.375.375 0 0 0 .75 0c0-.195.322-.278.457-.135.124.052.045.619.068.72a.375.375 0 0 0 .75 0c0-.248.461-.293.517-.03l-.622 2.629Z"/>
  <path d="M7.5 10.766a1.6 1.6 0 0 1 .116.117 1.803 1.803 0 0 1 1.271.585c.232.011.46.065.672.157h12.566v-5.25H1.875v4.924a1.801 1.801 0 0 1 1.369-.424V9.281c.037-2.25 3.48-2.25 3.521 0v1.088c.273.071.525.208.735.397Zm9.75-2.141h.596c-.206-.229-.776-.607-.424-.952.353-.346.724.202.953.423 0-.307-.116-.982.375-.971.491.011.375.664.375.971.229-.206.608-.776.953-.423.345.352-.203.723-.424.952.307 0 .982-.116.971.375-.011.491-.664.375-.971.375.206.229.776.607.424.953-.353.345-.724-.203-.953-.424 0 .307.116.982-.375.971-.491-.011-.375-.664-.375-.971-.229.21-.608.776-.953.424-.345-.353.203-.724.424-.953h-.596a.375.375 0 0 1 0-.75Zm-4.5 0h.596c-.206-.229-.776-.607-.424-.952.353-.346.724.202.953.423 0-.307-.116-.982.375-.971.491.011.375.664.375.971.229-.206.607-.776.953-.423.345.352-.203.723-.424.952.307 0 .982-.116.971.375-.011.491-.664.375-.971.375.206.229.776.607.424.953-.353.345-.724-.203-.953-.424 0 .307.116.982-.375.971-.491-.011-.375-.664-.375-.971-.229.21-.607.776-.953.424-.345-.353.203-.724.424-.953h-.596a.375.375 0 0 1 0-.75Zm-4.5 0h.596c-.206-.229-.776-.607-.424-.952.353-.346.724.202.953.423 0-.307-.116-.982.375-.971.491.011.375.664.375.971.229-.206.607-.776.953-.423.345.352-.203.723-.424.952.307 0 .982-.116.971.375-.011.491-.664.375-.971.375.206.229.776.607.424.953-.353.345-.724-.203-.953-.424 0 .307.116.982-.375.971-.491-.011-.375-.664-.375-.971-.229.21-.607.776-.953.424-.345-.353.203-.724.424-.953H8.25a.375.375 0 0 1 0-.75Z"/>
</svg>
