<svg viewBox="0 0 24 24" fill="currentColor" xmlns="http://www.w3.org/2000/svg">
<path d="M18 12.8334H26.1667V15.1667H18V12.8334ZM19.1641 17.5H26.1641V19.8333H19.1641V17.5ZM16.832 8.16672H26.1654V10.5001H16.832V8.16672ZM5.16536 22.1667H14.4987H15.6654H16.832V21.0001C16.832 17.7836 14.2152 15.1667 10.9987 15.1667H8.66537C5.44886 15.1667 2.83203 17.7836 2.83203 21.0001V22.1667H3.9987H5.16536V22.1667ZM9.83333 14C12.1608 14 13.9167 12.2442 13.9167 9.91671C13.9167 7.58921 12.1608 5.83337 9.83333 5.83337C7.50583 5.83337 5.75 7.58921 5.75 9.91671C5.75 12.2442 7.50583 14 9.83333 14V14Z"/>
</svg>
