<svg xmlns="http://www.w3.org/2000/svg" fill="currentColor" viewBox="0 0 24 24">
  <path d="M8.75 22.425a3.67 3.67 0 0 1-2.062-.6c-.608-.4-1.08-.95-1.412-1.65-.267.35-.605.62-1.013.813a2.94 2.94 0 0 1-1.262.287c-.85 0-1.563-.292-2.138-.875s-.862-1.292-.862-2.125c0-.717.233-1.362.7-1.938.466-.575 1.058-.904 1.775-.987a4.114 4.114 0 0 1-.538-1.063 3.73 3.73 0 0 1-.187-1.187c0-.667.17-1.292.512-1.875A3.994 3.994 0 0 1 3.701 9.8c.083.3.195.62.337.962.142.342.304.638.488.888a2.004 2.004 0 0 0-.55.662c-.134.259-.2.53-.2.813 0 .933.383 1.508 1.15 1.725.766.217 1.491.392 2.175.525l.475.8c-.184.533-.342.988-.475 1.363a3.06 3.06 0 0 0-.2 1.012c0 .5.179.938.537 1.313.358.375.796.562 1.313.562.633 0 1.158-.283 1.575-.85a7.523 7.523 0 0 0 1.025-2c.266-.767.47-1.542.612-2.325.142-.783.254-1.383.338-1.8l1.95.525c-.15.75-.334 1.608-.55 2.575a14.51 14.51 0 0 1-.913 2.762c-.392.875-.908 1.613-1.55 2.213-.642.6-1.47.9-2.487.9ZM3 19.275a.97.97 0 0 0 .713-.287.967.967 0 0 0 .288-.713.968.968 0 0 0-.288-.712.968.968 0 0 0-.712-.288.968.968 0 0 0-.713.288.968.968 0 0 0-.287.712c0 .283.095.52.287.713.192.191.43.287.713.287Zm7.1-3.95a94.715 94.715 0 0 1-2.087-1.912 17.655 17.655 0 0 1-1.612-1.726 7.325 7.325 0 0 1-1.038-1.675 4.33 4.33 0 0 1-.362-1.737c0-1.083.37-1.996 1.112-2.737.742-.742 1.654-1.113 2.738-1.113.066 0 .125.004.175.013.05.008.108.012.175.012A2.673 2.673 0 0 1 9 3.425c0-.833.291-1.542.875-2.125A2.893 2.893 0 0 1 12 .425c.833 0 1.541.292 2.125.875.583.583.875 1.292.875 2.125a2.522 2.522 0 0 1-.2 1h.35c1 0 1.85.32 2.55.963a3.874 3.874 0 0 1 1.25 2.387c-.3-.05-.638-.075-1.013-.075-.375 0-.72.017-1.037.05a1.92 1.92 0 0 0-.638-.95 1.71 1.71 0 0 0-1.112-.375c-.584 0-1.038.17-1.363.513-.325.341-.77.837-1.337 1.487h-.925a28.083 28.083 0 0 0-1.363-1.512c-.325-.325-.762-.488-1.312-.488-.534 0-.975.175-1.325.525C7.176 7.3 7 7.742 7 8.275c0 .383.108.78.325 1.188.216.408.52.841.912 1.3.392.458.867.945 1.425 1.462a96.39 96.39 0 0 0 1.863 1.675L10.1 15.325Zm1.9-10.9a.97.97 0 0 0 .713-.287.967.967 0 0 0 .288-.713.967.967 0 0 0-.288-.712.968.968 0 0 0-.712-.288.968.968 0 0 0-.713.288.967.967 0 0 0-.287.712c0 .283.095.52.287.713.192.191.43.287.713.287Zm3.226 18c-.367 0-.73-.05-1.088-.15a3.746 3.746 0 0 1-1.037-.475 7.15 7.15 0 0 0 .55-.825c.183-.317.35-.608.5-.875a2.01 2.01 0 0 0 1.1.325c.533 0 .979-.188 1.337-.563a1.87 1.87 0 0 0 .538-1.337 3.02 3.02 0 0 0-.2-1.025 82.604 82.604 0 0 1-.475-1.35l.475-.8c.7-.133 1.429-.308 2.187-.525.758-.217 1.138-.792 1.138-1.725 0-.667-.246-1.15-.738-1.45a3.04 3.04 0 0 0-1.612-.45c-.7 0-1.517.133-2.45.4-.934.267-2.025.608-3.275 1.025l-.525-1.95a95.87 95.87 0 0 1 3.475-1.05c1.016-.283 1.95-.425 2.8-.425 1.15 0 2.158.342 3.025 1.025.866.683 1.3 1.642 1.3 2.875 0 .417-.063.813-.188 1.188a4.13 4.13 0 0 1-.537 1.062c.716.083 1.308.412 1.775.987.466.576.7 1.221.7 1.938 0 .833-.288 1.542-.863 2.125s-1.287.875-2.137.875a2.94 2.94 0 0 1-1.263-.287 2.687 2.687 0 0 1-1.012-.813c-.334.7-.805 1.25-1.413 1.65-.608.4-1.304.6-2.087.6Zm5.8-3.15a.927.927 0 0 0 .7-.287.99.99 0 0 0 .275-.713 1.01 1.01 0 0 0-.288-.725.947.947 0 0 0-.712-.3.968.968 0 0 0-.713.288.968.968 0 0 0-.287.712c0 .283.1.525.3.725.2.2.441.3.725.3Z"/>
</svg>
