<svg viewBox="0 0 24 24" fill="none" xmlns="http://www.w3.org/2000/svg">
<path d="M18.9281 10.925L19.7416 11.6369C20.0861 11.9383 20.0861 12.4257 19.7416 12.7239L12.6212 18.9575C12.2767 19.2589 11.7197 19.2589 11.3788 18.9575L4.25836 12.7271C3.91388 12.4257 3.91388 11.9383 4.25836 11.6401L5.07192 10.9282C5.42006 10.6236 5.98809 10.63 6.3289 10.941L10.5323 14.8018L10.5323 5.58602C10.5323 5.15955 10.9244 4.81644 11.4118 4.81644H12.5845C13.0719 4.81644 13.464 5.15955 13.464 5.58602L13.464 14.8018L17.6711 10.9378C18.0119 10.6236 18.5799 10.6172 18.9281 10.925Z" fill="#FF3737"/>
</svg>
