<svg xmlns="http://www.w3.org/2000/svg" fill="currentColor" viewBox="0 0 24 24">
    <path d="M0 18v-1.575c0-.717.367-1.3 1.1-1.75C1.835 14.225 2.8 14 4 14c.217 0 .426.004.626.012.2.009.391.03.575.063-.234.35-.409.717-.525 1.1a4.098 4.098 0 0 0-.175 1.2V18H0Zm6 0v-1.625c0-.533.146-1.02.438-1.463.292-.441.704-.829 1.238-1.162.533-.333 1.17-.583 1.912-.75.742-.167 1.546-.25 2.413-.25a11.1 11.1 0 0 1 2.437.25c.742.167 1.38.417 1.913.75.533.333.941.72 1.225 1.162.283.442.425.93.425 1.463V18H6Zm13.5 0v-1.625c0-.433-.054-.842-.162-1.225a3.913 3.913 0 0 0-.487-1.075c.183-.033.37-.054.562-.063.192-.008.388-.012.588-.012 1.2 0 2.166.22 2.9.662.733.442 1.1 1.03 1.1 1.763V18h-4.5ZM8.127 16H15.9c-.167-.333-.63-.625-1.388-.875-.758-.25-1.596-.375-2.512-.375-.917 0-1.755.125-2.513.375s-1.212.542-1.362.875ZM4 13c-.55 0-1.021-.196-1.413-.588A1.926 1.926 0 0 1 2.001 11c0-.567.195-1.042.587-1.425A1.947 1.947 0 0 1 4.001 9c.566 0 1.041.192 1.425.575.383.383.575.858.575 1.425 0 .55-.192 1.02-.575 1.412A1.914 1.914 0 0 1 4 13Zm16 0c-.55 0-1.021-.196-1.413-.588A1.926 1.926 0 0 1 18.001 11c0-.567.195-1.042.587-1.425A1.947 1.947 0 0 1 20.001 9c.566 0 1.041.192 1.425.575.383.383.575.858.575 1.425 0 .55-.192 1.02-.575 1.412A1.914 1.914 0 0 1 20 13Zm-8-1a2.893 2.893 0 0 1-2.125-.875A2.893 2.893 0 0 1 9 9c0-.85.291-1.563.875-2.138C10.459 6.287 11.167 6 12 6c.85 0 1.562.287 2.137.862S15 8.15 15 9c0 .833-.288 1.542-.863 2.125S12.851 12 12.001 12Zm0-2a.97.97 0 0 0 .712-.287.967.967 0 0 0 .289-.713.967.967 0 0 0-.288-.713.968.968 0 0 0-.712-.287.968.968 0 0 0-.713.287.967.967 0 0 0-.287.713c0 .283.095.52.287.713.192.191.43.287.713.287Z"/>
</svg>
