<svg xmlns="http://www.w3.org/2000/svg" fill="currentColor" viewBox="0 0 24 24">

    <path d="m11 21-3.175-2.85a93.169 93.169 0 0 1-3.088-2.9c-.858-.85-1.566-1.65-2.125-2.4-.558-.75-.966-1.475-1.225-2.175A6.303 6.303 0 0 1 1 8.475c0-1.567.525-2.87 1.575-3.912C3.625 3.52 4.933 3 6.5 3c.867 0 1.692.183 2.475.55A5.93 5.93 0 0 1 11 5.1a5.93 5.93 0 0 1 2.025-1.55A5.769 5.769 0 0 1 15.5 3c1.4 0 2.675.492 3.825 1.475 1.15.983 1.725 2.317 1.725 4 0 .233-.017.48-.05.738a6.86 6.86 0 0 1-.15.787h-2.125c.083-.3.15-.583.2-.85.05-.267.075-.517.075-.75 0-1.25-.417-2.13-1.25-2.638S16.167 5 15.5 5c-.85 0-1.583.23-2.2.688-.617.458-1.192 1.062-1.725 1.812h-1.15c-.517-.75-1.104-1.354-1.763-1.813A3.705 3.705 0 0 0 6.5 5c-.95 0-1.77.33-2.463.987C3.346 6.646 3 7.476 3 8.476c0 .55.117 1.108.35 1.675.233.567.65 1.22 1.25 1.963.6.741 1.417 1.608 2.45 2.6C8.083 15.704 9.4 16.9 11 18.3c.433-.383.942-.825 1.525-1.325s1.05-.917 1.4-1.25l1.425 1.425a86.12 86.12 0 0 1-1.4 1.238c-.567.491-1.067.929-1.5 1.312L11 21Zm4-7v-2h8v2h-8Z"/>
</svg>
