<svg xmlns="http://www.w3.org/2000/svg" fill="none" viewBox="0 0 24 24">
  <path fill="#FF3737" d="M5.488 10.975A5.488 5.488 0 1 0 0 5.487v5.488h5.488Z"/>
  <path fill="#FF25FF" d="M13.024 5.488A5.488 5.488 0 1 0 18.51 0h-5.488v5.488Z"/>
  <path fill="#0F0" d="M18.512 13.024A5.488 5.488 0 1 0 24 18.51v-5.487h-5.488Z"/>
  <path fill="#1EEEEE" d="M10.975 18.512A5.488 5.488 0 1 0 5.488 24h5.487v-5.488Z"/>
  <path fill="#FFD900" d="M11.999 8.488c.384 1.687 1.825 3.128 3.512 3.512-1.687.384-3.128 1.825-3.512 3.512-.384-1.687-1.824-3.128-3.512-3.512 1.688-.384 3.128-1.825 3.512-3.512Z"/>
</svg>
