<svg xmlns="http://www.w3.org/2000/svg" fill="currentColor" viewBox="0 0 24 24">
  <path d="M22.5 4.875h-4.875a.375.375 0 0 0 0 .75h4.5v5.25H10.5a.375.375 0 0 0 0 .75h12a.375.375 0 0 0 .375-.375v-6a.375.375 0 0 0-.375-.375Z"/>
  <path d="M16.234 5.516a.377.377 0 1 0 .532-.532.377.377 0 0 0-.532.532Zm-.484-.266a.375.375 0 0 0-.375-.375H1.5a.375.375 0 0 0-.375.375v6a.375.375 0 0 0 .75 0V5.625h13.5a.375.375 0 0 0 .375-.375Z"/>
  <path d="M11.625 8.25c0-.495-.656-.375-.971-.375.217-.247.772-.581.424-.952-.35-.372-.705.202-.953.423 0-.315.12-.971-.375-.971s-.375.656-.375.971c-.248-.217-.581-.772-.953-.423-.37.348.203.705.424.952-.315 0-.971-.12-.971.375s.656.375.971.375c-.217.248-.772.581-.424.953.35.37.705-.203.953-.424 0 .315-.12.971.375.971s.375-.656.375-.971c.248.217.581.772.953.424.37-.35-.203-.705-.424-.953.315 0 .971.12.971-.375Zm3.529-.375c.217-.247.772-.581.424-.952-.35-.372-.705.202-.953.423 0-.315.12-.971-.375-.971s-.375.656-.375.971c-.248-.217-.581-.772-.953-.423-.37.348.203.705.424.952-.315 0-.971-.12-.971.375s.656.375.971.375c-.217.248-.772.581-.424.953.35.37.705-.203.953-.424 0 .315-.12.971.375.971s.375-.656.375-.971c.248.217.581.772.953.424.37-.35-.203-.705-.424-.953.315 0 .971.12.971-.375s-.656-.375-.971-.375Zm2.096.75h.596c-.217.248-.772.581-.424.953.35.37.706-.203.953-.424 0 .315-.12.971.375.971s.375-.656.375-.971c.247.217.581.772.953.424.37-.35-.203-.705-.424-.953.315 0 .971.12.971-.375s-.656-.375-.971-.375c.217-.247.772-.581.424-.952-.35-.372-.706.202-.953.423 0-.315.12-.971-.375-.971s-.375.656-.375.971c-.247-.217-.581-.772-.953-.423-.37.348.203.705.424.952h-.596a.375.375 0 0 0 0 .75Zm-8.374 2.891a1.042 1.042 0 0 0-1.275-.585 1.039 1.039 0 0 0-1.226-.603V8.53a.926.926 0 0 0-.307-.69c-.59-.585-1.74-.146-1.714.69v3c-.439-1.18-2.359-.603-1.901.66l1.297 3.07.615 1.875c-.701.461-.525 2.006.45 1.987h3.81a.844.844 0 0 0 .844-.843c.037-.458-.026-1.035-.518-1.212l.604-1.833.634-2.727c.116-.686-.694-1.215-1.313-.99Zm-.15 6.75a.094.094 0 0 1-.101.11h-3.81c-.172 0-.071-.443-.094-.526a.094.094 0 0 1 .117-.094h3.787c.176-.015.075.443.101.525v-.015Zm.113-3.247-.645 1.972H5.11l-.656-1.99-1.294-3.11c-.093-.3.428-.356.495-.127l.75 1.777a.375.375 0 0 0 .72-.142V8.524c0-.259.507-.293.522 0v2.726a.375.375 0 1 0 .75 0c0-.195.322-.277.457-.135.199.206-.161 1.125.439 1.095a.375.375 0 0 0 .375-.375c0-.195.322-.277.457-.135.12.053.049.619.068.72a.375.375 0 1 0 .75 0c0-.247.461-.292.517-.03l-.62 2.63Z"/>
</svg>
