<svg xmlns="http://www.w3.org/2000/svg" fill="currentColor" viewBox="0 0 24 24">
  <path d="M12 10.5c3.956-.105 3.956-5.895 0-6-3.956.105-3.956 5.895 0 6Zm-2.25-3a.375.375 0 0 1 .375-.375h3.75a.375.375 0 1 1 0 .75h-3.75A.375.375 0 0 1 9.75 7.5Z"/>
  <path d="M12 12c5.948-.188 5.948-8.813 0-9-5.947.188-5.947 8.813 0 9Zm0-8.25c4.958.158 4.954 7.342 0 7.5-4.957-.158-4.954-7.342 0-7.5Zm1.875 9h-12V18h20.25v-5.25h-8.25Zm-7.125 3h-.596c.206.229.776.608.423.953-.352.345-.723-.203-.952-.424 0 .307.116.982-.375.971-.491-.011-.375-.664-.375-.971-.229.21-.607.776-.953.424-.345-.353.203-.724.424-.953-.307 0-.971.116-.971-.375S4.039 15 4.346 15c-.206-.229-.776-.607-.424-.953.353-.345.724.203.953.424 0-.307-.116-.982.375-.971.491.011.375.664.375.971.229-.206.607-.776.952-.424.346.353-.202.724-.423.953h.596a.375.375 0 1 1 0 .75Zm4.5 0h-.596c.206.229.776.608.424.953-.353.345-.724-.203-.953-.424 0 .307.116.982-.375.971-.491-.011-.375-.664-.375-.971-.229.21-.607.776-.953.424-.345-.353.203-.724.424-.953-.307 0-.982.116-.971-.375.011-.491.664-.375.971-.375-.206-.229-.776-.607-.424-.953.353-.345.724.203.953.424 0-.307-.116-.982.375-.971.491.011.375.664.375.971.229-.206.607-.776.953-.424.345.353-.203.724-.424.953h.596a.375.375 0 0 1 0 .75Zm4.5 0h-.596c.206.229.776.608.424.953-.353.345-.724-.203-.953-.424 0 .307.116.982-.375.971-.491-.011-.375-.664-.375-.971-.229.21-.607.776-.953.424-.345-.353.203-.724.424-.953-.307 0-.982.116-.971-.375.011-.491.664-.375.971-.375-.206-.229-.776-.607-.424-.953.353-.345.724.203.953.424 0-.307-.116-.982.375-.971.491.011.375.664.375.971.229-.206.607-.776.953-.424.345.353-.203.724-.424.953h.596a.375.375 0 0 1 0 .75Zm4.5 0h-.596c.206.229.776.608.424.953-.353.345-.724-.203-.953-.424 0 .307.116.982-.375.971-.491-.011-.375-.664-.375-.971-.229.21-.608.776-.953.424-.345-.353.203-.724.424-.953-.307 0-.982.116-.971-.375.011-.491.664-.375.971-.375-.206-.229-.776-.607-.424-.953.353-.345.724.203.953.424 0-.307-.116-.982.375-.971.491.011.375.664.375.971.229-.206.608-.776.953-.424.345.353-.203.724-.424.953h.596a.375.375 0 0 1 0 .75Z"/>
</svg>
