<svg xmlns="http://www.w3.org/2000/svg" fill="currentColor" viewBox="0 0 24 24">
  <path d="m19.762 18.624-3.383-3.382a.887.887 0 0 0-1.252 0 5.602 5.602 0 1 1 1.518-2.579.803.803 0 0 0 1.55.413A7.221 7.221 0 0 0 9.18 4.294a7.22 7.22 0 1 0 6.544 12.569l2.905 2.902a.798.798 0 0 0 1.134 0 .8.8 0 0 0 0-1.14Z"/>
  <path fill="#00C569" d="M13.632 13.624a.788.788 0 0 0-.961-.086 2.729 2.729 0 0 1-2.774.054.772.772 0 0 0-.92.106l-.047.045a.771.771 0 0 0 .134 1.22 4.34 4.34 0 0 0 4.484-.09.771.771 0 0 0 .132-1.197l-.048-.052Z"/>
</svg>
