<svg viewBox="0 0 24 24" fill="currentColor" xmlns="http://www.w3.org/2000/svg">
<path d="M17 11V9H21V11H17ZM10 12C8.9 12 7.95833 11.6083 7.175 10.825C6.39167 10.0417 6 9.1 6 8C6 6.9 6.39167 5.95833 7.175 5.175C7.95833 4.39167 8.9 4 10 4C11.1 4 12.0417 4.39167 12.825 5.175C13.6083 5.95833 14 6.9 14 8C14 9.1 13.6083 10.0417 12.825 10.825C12.0417 11.6083 11.1 12 10 12ZM2 20V17.2C2 16.6333 2.14583 16.1125 2.4375 15.6375C2.72917 15.1625 3.11667 14.8 3.6 14.55C4.63333 14.0333 5.68333 13.6458 6.75 13.3875C7.81667 13.1292 8.9 13 10 13C11.1 13 12.1833 13.1292 13.25 13.3875C14.3167 13.6458 15.3667 14.0333 16.4 14.55C16.8833 14.8 17.2708 15.1625 17.5625 15.6375C17.8542 16.1125 18 16.6333 18 17.2V20H2ZM4 18H16V17.2C16 17.0167 15.9542 16.85 15.8625 16.7C15.7708 16.55 15.65 16.4333 15.5 16.35C14.6 15.9 13.6917 15.5625 12.775 15.3375C11.8583 15.1125 10.9333 15 10 15C9.06667 15 8.14167 15.1125 7.225 15.3375C6.30833 15.5625 5.4 15.9 4.5 16.35C4.35 16.4333 4.22917 16.55 4.1375 16.7C4.04583 16.85 4 17.0167 4 17.2V18ZM10 10C10.55 10 11.0208 9.80417 11.4125 9.4125C11.8042 9.02083 12 8.55 12 8C12 7.45 11.8042 6.97917 11.4125 6.5875C11.0208 6.19583 10.55 6 10 6C9.45 6 8.97917 6.19583 8.5875 6.5875C8.19583 6.97917 8 7.45 8 8C8 8.55 8.19583 9.02083 8.5875 9.4125C8.97917 9.80417 9.45 10 10 10Z" />
<path d="M21 9V11V13L24 10L21 7V9Z" />
</svg>
