<svg xmlns="http://www.w3.org/2000/svg" fill="currentColor" viewBox="0 0 24 24">
    <path d="M11.999 16c2.206 0 4-1.794 4-4s-1.794-4-4-4-4 1.794-4 4 1.794 4 4 4Zm-.001-6c1.084 0 2 .915 2 2 0 1.083-.916 2-2 2s-2-.917-2-2c0-1.085.916-2 2-2Z"/>
    <path d="m2.846 16.136 1 1.73c.531.917 1.81 1.26 2.73.73l.53-.306A8.1 8.1 0 0 0 9 19.402V20c0 1.103.897 2 2 2h2c1.103 0 2-.897 2-2v-.598a8.132 8.132 0 0 0 1.896-1.111l.53.306c.922.53 2.197.188 2.73-.731l1-1.73a2.001 2.001 0 0 0-.732-2.731l-.505-.292a7.718 7.718 0 0 0 0-2.224l.505-.292a2.002 2.002 0 0 0 .731-2.732l-.999-1.73c-.53-.92-1.808-1.264-2.73-.731l-.53.306A8.1 8.1 0 0 0 15 4.598V4c0-1.103-.897-2-2-2h-2c-1.103 0-2 .897-2 2v.598a8.132 8.132 0 0 0-1.896 1.11l-.529-.305c-.924-.531-2.2-.187-2.73.732l-1 1.729a2.001 2.001 0 0 0 .731 2.732l.505.292a7.683 7.683 0 0 0 0 2.223l-.505.292a2.003 2.003 0 0 0-.73 2.733Zm3.326-2.759A5.703 5.703 0 0 1 6.001 12c0-.462.058-.926.17-1.378a.999.999 0 0 0-.47-1.108l-1.123-.65.998-1.729 1.145.662a.997.997 0 0 0 1.188-.142 6.071 6.071 0 0 1 2.384-1.399 1 1 0 0 0 .708-.956V4h2v1.3a1 1 0 0 0 .708.956 6.083 6.083 0 0 1 2.384 1.4.999.999 0 0 0 1.188.141l1.144-.66 1 1.728-1.124.65a1 1 0 0 0-.47 1.107c.112.452.17.916.17 1.378 0 .461-.058.925-.171 1.378a1 1 0 0 0 .471 1.108l1.123.65-.998 1.728-1.145-.66a.996.996 0 0 0-1.188.141 6.071 6.071 0 0 1-2.384 1.4 1 1 0 0 0-.708.955l.002 1.3h-2.002v-1.3a1 1 0 0 0-.708-.956 6.083 6.083 0 0 1-2.384-1.399.992.992 0 0 0-1.188-.14l-1.144.661-1-1.729 1.124-.65a1 1 0 0 0 .471-1.109Z"/>
</svg>
