<svg width="24" height="24" viewBox="0 0 24 24" fill="none" xmlns="http://www.w3.org/2000/svg">
<g clip-path="url(#clip0_1328_11613)">
<path d="M13.5 18.375H15V18C15 17.5027 14.8025 17.0258 14.4508 16.6742C14.0992 16.3225 13.6223 16.125 13.125 16.125H12.758C13.0973 15.9544 13.3692 15.6743 13.5296 15.33C13.69 14.9857 13.7296 14.5974 13.6419 14.2278C13.5543 13.8582 13.3445 13.5291 13.0465 13.2935C12.7485 13.0579 12.3798 12.9298 12 12.9298C11.6202 12.9298 11.2515 13.0579 10.9535 13.2935C10.6555 13.5291 10.4457 13.8582 10.3581 14.2278C10.2704 14.5974 10.31 14.9857 10.4704 15.33C10.6308 15.6743 10.9027 15.9544 11.242 16.125H10.875C10.3777 16.125 9.90081 16.3225 9.54917 16.6742C9.19754 17.0258 9 17.5027 9 18V22.5H13.5V18.375Z" fill="#374151"/>
<path d="M18.75 19.125H14.25V23.625H18.75V19.125ZM17.25 21.1875L16.5 20.8125L15.75 21.1875V19.5H17.25V21.1875Z" fill="#374151"/>
<path d="M12.3828 12.375V10.125H13.5078L12.0078 7.875L10.5078 10.125H11.6328V12.375H12.3828Z" fill="#374151"/>
<path d="M20.2578 6.375C20.8791 6.375 21.3828 5.87132 21.3828 5.25C21.3828 4.62868 20.8791 4.125 20.2578 4.125C19.6365 4.125 19.1328 4.62868 19.1328 5.25C19.1328 5.87132 19.6365 6.375 20.2578 6.375Z" fill="#374151"/>
<path d="M20.2578 2.625C19.5903 2.625 18.9378 2.82294 18.3828 3.19379C17.8277 3.56464 17.3952 4.09174 17.1397 4.70844C16.8843 5.32514 16.8174 6.00374 16.9477 6.65843C17.0779 7.31312 17.3993 7.91448 17.8713 8.38649C18.3433 8.85849 18.9447 9.17993 19.5994 9.31015C20.2541 9.44038 20.9327 9.37354 21.5494 9.11809C22.1661 8.86265 22.6932 8.43007 23.064 7.87505C23.4349 7.32003 23.6328 6.66751 23.6328 6C23.6318 5.1052 23.2759 4.24735 22.6432 3.61463C22.0105 2.98191 21.1526 2.62601 20.2578 2.625ZM22.1328 7.83355V7.5C22.1328 7.20163 22.0143 6.91548 21.8033 6.7045C21.5923 6.49353 21.3062 6.375 21.0078 6.375H19.5078C19.2094 6.375 18.9233 6.49353 18.7123 6.7045C18.5013 6.91548 18.3828 7.20163 18.3828 7.5V7.83355C18.0211 7.46434 17.7764 6.99655 17.6794 6.48883C17.5824 5.98111 17.6375 5.45606 17.8378 4.97953C18.038 4.503 18.3745 4.09619 18.805 3.81011C19.2355 3.52404 19.7409 3.37143 20.2578 3.37143C20.7747 3.37143 21.2801 3.52404 21.7106 3.81011C22.1411 4.09619 22.4776 4.503 22.6778 4.97953C22.8781 5.45606 22.9332 5.98111 22.8362 6.48883C22.7393 6.99655 22.4946 7.46434 22.1328 7.83355Z" fill="#374151"/>
<path d="M12.0078 4.125C12.6291 4.125 13.1328 3.62132 13.1328 3C13.1328 2.37868 12.6291 1.875 12.0078 1.875C11.3865 1.875 10.8828 2.37868 10.8828 3C10.8828 3.62132 11.3865 4.125 12.0078 4.125Z" fill="#374151"/>
<path d="M12.0078 0.375C11.3403 0.375 10.6878 0.57294 10.1328 0.94379C9.57775 1.31464 9.14517 1.84174 8.88972 2.45844C8.63427 3.07514 8.56744 3.75374 8.69766 4.40843C8.82789 5.06312 9.14933 5.66448 9.62133 6.13649C10.0933 6.60849 10.6947 6.92993 11.3494 7.06015C12.0041 7.19038 12.6827 7.12354 13.2994 6.86809C13.9161 6.61265 14.4432 6.18007 14.814 5.62505C15.1849 5.07003 15.3828 4.41751 15.3828 3.75C15.3818 2.8552 15.0259 1.99735 14.3932 1.36463C13.7605 0.731912 12.9026 0.376008 12.0078 0.375ZM13.8828 5.58355V5.25C13.8828 4.95163 13.7643 4.66548 13.5533 4.4545C13.3423 4.24353 13.0562 4.125 12.7578 4.125H11.2578C10.9594 4.125 10.6733 4.24353 10.4623 4.4545C10.2513 4.66548 10.1328 4.95163 10.1328 5.25V5.58355C9.77106 5.21434 9.52637 4.74655 9.42941 4.23883C9.33245 3.73111 9.38755 3.20606 9.58779 2.72953C9.78803 2.253 10.1245 1.84619 10.555 1.56011C10.9855 1.27404 11.4909 1.12143 12.0078 1.12143C12.5247 1.12143 13.0301 1.27404 13.4606 1.56011C13.8911 1.84619 14.2276 2.253 14.4278 2.72953C14.6281 3.20606 14.6832 3.73111 14.5862 4.23883C14.4893 4.74655 14.2446 5.21434 13.8828 5.58355Z" fill="#374151"/>
<path d="M3.75781 6.375C4.37913 6.375 4.88281 5.87132 4.88281 5.25C4.88281 4.62868 4.37913 4.125 3.75781 4.125C3.13649 4.125 2.63281 4.62868 2.63281 5.25C2.63281 5.87132 3.13649 6.375 3.75781 6.375Z" fill="#374151"/>
<path d="M3.75781 9.375C4.42532 9.375 5.07785 9.17706 5.63286 8.80621C6.18788 8.43536 6.62046 7.90826 6.87591 7.29156C7.13135 6.67486 7.19819 5.99626 7.06796 5.34157C6.93774 4.68689 6.6163 4.08552 6.1443 3.61352C5.6723 3.14151 5.07093 2.82008 4.41624 2.68985C3.76156 2.55963 3.08296 2.62646 2.46626 2.88191C1.84956 3.13735 1.32245 3.56994 0.951603 4.12495C0.580753 4.67997 0.382813 5.33249 0.382812 6C0.383821 6.8948 0.739724 7.75266 1.37244 8.38537C2.00516 9.01809 2.86302 9.37399 3.75781 9.375ZM3.75781 3.375C4.27451 3.3745 4.77985 3.52665 5.21038 3.81235C5.64091 4.09805 5.97744 4.50456 6.17775 4.98085C6.37805 5.45715 6.43319 5.982 6.33624 6.48953C6.23929 6.99705 5.99457 7.46462 5.63281 7.83355V7.5C5.63281 7.20163 5.51429 6.91548 5.30331 6.70451C5.09233 6.49353 4.80618 6.375 4.50781 6.375H3.00781C2.70944 6.375 2.4233 6.49353 2.21232 6.70451C2.00134 6.91548 1.88281 7.20163 1.88281 7.5V7.83355C1.52105 7.46462 1.27634 6.99705 1.17939 6.48953C1.08244 5.982 1.13758 5.45715 1.33788 4.98085C1.53818 4.50456 1.87472 4.09805 2.30525 3.81235C2.73578 3.52665 3.24111 3.3745 3.75781 3.375Z" fill="#374151"/>
<path d="M15.3949 10.7385L13.5391 12.5947L14.0693 13.125L15.9252 11.2687L16.7209 12.0645L17.2512 9.41248L14.5996 9.9431L15.3949 10.7385Z" fill="#374151"/>
<path d="M6.75 9.41248L7.28025 12.0645L8.076 11.2687L9.93188 13.125L10.4621 12.5947L8.60625 10.7385L9.40162 9.9431L6.75 9.41248Z" fill="#374151"/>
</g>
<defs>
<clipPath id="clip0_1328_11613">
<rect width="24" height="24" fill="white"/>
</clipPath>
</defs>
</svg>
