<svg width="26" height="25" viewBox="0 0 26 25" fill="none" xmlns="http://www.w3.org/2000/svg">
<path fill-rule="evenodd" clip-rule="evenodd" d="M14.3779 1.00876L16.1961 2.82732C16.5618 3.19304 17.0577 3.39851 17.5749 3.39858L20.1491 3.39889C21.1627 3.39901 21.9956 4.17247 22.09 5.16133L22.0989 5.34913L22.0986 7.92183C22.0985 8.43915 22.304 8.93528 22.6698 9.30105L24.4895 11.1204C25.2039 11.8338 25.2487 12.9636 24.6241 13.7295L24.4893 13.8776L22.6701 15.6959C22.3041 16.0617 22.0985 16.5579 22.0986 17.0753L22.0989 19.6491C22.0995 20.6627 21.3262 21.4958 20.3374 21.5904L20.1491 21.5989L17.5753 21.5986C17.0579 21.5985 16.5617 21.8041 16.1959 22.1701L14.3776 23.9893C13.6643 24.7038 12.5346 24.7487 11.7685 24.1243L11.6204 23.9895L9.80104 22.1698C9.43528 21.804 8.93914 21.5985 8.42183 21.5986L5.84913 21.5989C4.83552 21.599 4.00245 20.8258 3.90784 19.8369L3.89889 19.6491L3.89858 17.0749C3.89852 16.5577 3.69303 16.0618 3.32732 15.6961L1.50876 13.8779C0.794771 13.164 0.750054 12.0342 1.37468 11.2683L1.50852 11.1202L3.32756 9.3008C3.69312 8.93517 3.89852 8.43933 3.89858 7.92231L3.89889 5.34913C3.89949 4.27235 4.77236 3.39949 5.84913 3.39889L8.4223 3.39858C8.93933 3.39851 9.43518 3.19313 9.80081 2.82755L11.6202 1.00852C12.3817 0.247068 13.6164 0.247172 14.3779 1.00876ZM17.5732 9.05657C17.1466 8.71532 16.5405 8.75028 16.1557 9.1169L16.0566 9.22508L11.6081 14.7832L9.8621 13.0362L9.7516 12.9396C9.32867 12.6177 8.72242 12.6499 8.33616 13.0362C7.9499 13.4224 7.91771 14.0287 8.23959 14.4516L8.33616 14.5621L10.9362 17.1621L11.046 17.2582C11.4659 17.5786 12.0612 17.5456 12.4431 17.1809L12.5417 17.0732L17.7417 10.5732L17.8255 10.4527C18.0987 9.99681 17.9997 9.39781 17.5732 9.05657Z" fill="#26BC5E"/>
</svg>
